<svg xmlns="http://www.w3.org/2000/svg" version="1.1" width="28" height="28">
<path d="M0 0 C9.24 0 18.48 0 28 0 C28 9.24 28 18.48 28 28 C18.76 28 9.52 28 0 28 C0 18.76 0 9.52 0 0 Z " fill="#F6BC6F" transform="translate(0,0)"/>
<path d="M0 0 C0 1.32 0 2.64 0 4 C0.66 4 1.32 4 2 4 C2 3.01 2 2.02 2 1 C3.32 0.67 4.64 0.34 6 0 C6.33 1.32 6.66 2.64 7 4 C6.01 4.66 5.02 5.32 4 6 C4.20625 6.886875 4.4125 7.77375 4.625 8.6875 C5.02973978 12.26270139 4.5059517 13.81092582 3 17 C3 17.66 3 18.32 3 19 C0.39417629 19.93065133 -0.64198224 20.14917407 -3.25 19.0625 C-4.11625 18.5365625 -4.11625 18.5365625 -5 18 C-5.33 18.66 -5.66 19.32 -6 20 C-7.65 20 -9.3 20 -11 20 C-11 15.71 -11 11.42 -11 7 C-10.34 6.67 -9.68 6.34 -9 6 C-8.67 5.175 -8.34 4.35 -8 3.5 C-6.34070037 -0.64824906 -4.07961758 -0.10735836 0 0 Z " fill="#F1AE59" transform="translate(16,4)"/>
<path d="M0 0 C0.99 0.33 1.98 0.66 3 1 C2.34 2.65 1.68 4.3 1 6 C1.94875 5.814375 2.8975 5.62875 3.875 5.4375 C7 5 7 5 9 6 C9 7.98 9 9.96 9 12 C-0.24 12 -9.48 12 -19 12 C-19 8.7 -19 5.4 -19 2 C-18.01 2.99 -17.02 3.98 -16 5 C-16 5.66 -16 6.32 -16 7 C-13.69 7.33 -11.38 7.66 -9 8 C-8.67 7.01 -8.34 6.02 -8 5 C-7.236875 5.33 -6.47375 5.66 -5.6875 6 C-3.00930865 7.17436686 -3.00930865 7.17436686 0 7 C-0.33 6.01 -0.66 5.02 -1 4 C-0.5625 1.8125 -0.5625 1.8125 0 0 Z " fill="#F1AB50" transform="translate(19,16)"/>
<path d="M0 0 C0 0.99 0 1.98 0 3 C-0.9590625 3.1546875 -0.9590625 3.1546875 -1.9375 3.3125 C-2.618125 3.539375 -3.29875 3.76625 -4 4 C-4.33 4.99 -4.66 5.98 -5 7 C-4.01 7 -3.02 7 -2 7 C-2 7.99 -2 8.98 -2 10 C-3.32 10 -4.64 10 -6 10 C-6.33 13.3 -6.66 16.6 -7 20 C-8.32 20 -9.64 20 -11 20 C-11 15.71 -11 11.42 -11 7 C-10.34 6.67 -9.68 6.34 -9 6 C-8.67 5.175 -8.34 4.35 -8 3.5 C-6.34070037 -0.64824906 -4.07961758 -0.10735836 0 0 Z " fill="#171513" transform="translate(16,4)"/>
<path d="M0 0 C0 3.63 0 7.26 0 11 C-2.64 11 -5.28 11 -8 11 C-7.814375 10.278125 -7.62875 9.55625 -7.4375 8.8125 C-6.98004693 5.87173027 -7.26483643 3.85896942 -8 1 C-4.59449725 -1.06762667 -4.18836538 -1.04709135 0 0 Z M-6 4 C-5 6 -5 6 -5 6 Z " fill="#FDB65D" transform="translate(28,11)"/>
<path d="M0 0 C0.99 0.33 1.98 0.66 3 1 C2.625 2.9375 2.625 2.9375 2 5 C1.01 5.495 1.01 5.495 0 6 C0.20625 6.886875 0.4125 7.77375 0.625 8.6875 C1.02973978 12.26270139 0.5059517 13.81092582 -1 17 C-1 17.66 -1 18.32 -1 19 C-2.32 19.33 -3.64 19.66 -5 20 C-4.814375 18.824375 -4.62875 17.64875 -4.4375 16.4375 C-3.91769004 12.38731406 -4.2497646 9.00125547 -5 5 C-4.01 4.67 -3.02 4.34 -2 4 C-2 3.01 -2 2.02 -2 1 C-1.34 0.67 -0.68 0.34 0 0 Z " fill="#E4A95E" transform="translate(20,4)"/>
<path d="M0 0 C0.99 0.33 1.98 0.66 3 1 C4.28571429 9.57142857 4.28571429 9.57142857 3 13 C1.68 13 0.36 13 -1 13 C-2.0070238 7.96488101 -1.97387813 4.76052962 0 0 Z " fill="#FAB55D" transform="translate(2,10)"/>
<path d="M0 0 C0 0.99 0 1.98 0 3 C-0.9590625 3.1546875 -0.9590625 3.1546875 -1.9375 3.3125 C-2.618125 3.539375 -3.29875 3.76625 -4 4 C-4.33 4.99 -4.66 5.98 -5 7 C-4.01 7 -3.02 7 -2 7 C-2 7.99 -2 8.98 -2 10 C-4.375 9.6875 -4.375 9.6875 -7 9 C-7.66 8.01 -8.32 7.02 -9 6 C-8.25 3.375 -8.25 3.375 -7 1 C-4.53721199 -0.231394 -2.7204945 -0.07159196 0 0 Z " fill="#25231F" transform="translate(16,4)"/>
<path d="M0 0 C0.99 0.33 1.98 0.66 3 1 C3 2.65 3 4.3 3 6 C0.36 6.33 -2.28 6.66 -5 7 C-5 6.34 -5 5.68 -5 5 C-5.66 4.67 -6.32 4.34 -7 4 C-5.824375 3.566875 -5.824375 3.566875 -4.625 3.125 C-1.90328368 2.15087746 -1.90328368 2.15087746 0 0 Z " fill="#FEBF6B" transform="translate(25,5)"/>
<path d="M0 0 C1.55078125 1.20703125 1.55078125 1.20703125 3 3 C2.85546875 5.26171875 2.85546875 5.26171875 2.1875 7.6875 C1.97480469 8.49574219 1.76210938 9.30398437 1.54296875 10.13671875 C1.36378906 10.75160156 1.18460938 11.36648437 1 12 C-0.32 12.33 -1.64 12.66 -3 13 C-2.69128878 11.20767663 -2.37790936 9.41615679 -2.0625 7.625 C-1.88847656 6.62726562 -1.71445312 5.62953125 -1.53515625 4.6015625 C-1 2 -1 2 0 0 Z " fill="#251E17" transform="translate(18,11)"/>
<path d="M0 0 C0 0.99 0 1.98 0 3 C-2.31 3.66 -4.62 4.32 -7 5 C-7.33 4.34 -7.66 3.68 -8 3 C-5.53387212 -0.1151089 -3.89156016 -0.31553191 0 0 Z " fill="#2B2926" transform="translate(16,4)"/>
<path d="M0 0 C1.32 0 2.64 0 4 0 C3.67 1.98 3.34 3.96 3 6 C2.67 5.34 2.34 4.68 2 4 C1.01 4 0.02 4 -1 4 C-0.67 2.68 -0.34 1.36 0 0 Z " fill="#CE9957" transform="translate(12,7)"/>
<path d="M0 0 C0.99 0.33 1.98 0.66 3 1 C3 1.99 3 2.98 3 4 C1.35 4 -0.3 4 -2 4 C-2 3.01 -2 2.02 -2 1 C-1.34 0.67 -0.68 0.34 0 0 Z " fill="#3D3428" transform="translate(20,4)"/>
</svg>